<svg id="SvgjsSvg1006" width="288" height="288" xmlns="http://www.w3.org/2000/svg" version="1.1" xmlns:xlink="http://www.w3.org/1999/xlink" xmlns:svgjs="http://svgjs.com/svgjs"><defs id="SvgjsDefs1007"></defs><g id="SvgjsG1008" transform="matrix(1,0,0,1,0,0)"><svg xmlns="http://www.w3.org/2000/svg" width="288" height="288" enable-background="new 0 0 24 24" viewBox="0 0 24 24"><rect width="24" height="24" fill="none"></rect><path d="M12,20c-4.41,0-8-3.59-8-8s3.59-8,8-8s8,3.59,8,8S16.41,20,12,20 M12,22c5.52,0,10-4.48,10-10c0-5.52-4.48-10-10-10 C6.48,2,2,6.48,2,12C2,17.52,6.48,22,12,22L12,22z M11,12l0,4h2l0-4h3l-4-4l-4,4H11z" fill="#958989" class="color000 svgShape"></path></svg></g></svg>